<mxfile host="Electron" agent="Mozilla/5.0 (Macintosh; Intel Mac OS X 10_15_7) AppleWebKit/537.36 (KHTML, like Gecko) draw.io/24.7.5 Chrome/126.0.6478.183 Electron/31.3.0 Safari/537.36" version="24.7.5">
  <diagram name="Page-1" id="AaEKmFql1r_eWt5HkwO5">
    <mxGraphModel dx="1026" dy="743" grid="1" gridSize="10" guides="1" tooltips="1" connect="1" arrows="1" fold="1" page="1" pageScale="1" pageWidth="827" pageHeight="1169" math="0" shadow="0">
      <root>
        <mxCell id="0" />
        <mxCell id="1" parent="0" />
        <mxCell id="3Bf_FbH5OQ8NM-TsNob--1" value="On-Premise" style="sketch=0;outlineConnect=0;gradientColor=none;html=1;whiteSpace=wrap;fontSize=12;fontStyle=0;shape=mxgraph.aws4.group;grIcon=mxgraph.aws4.group_on_premise;strokeColor=#AAB7B8;fillColor=none;verticalAlign=top;align=left;spacingLeft=30;fontColor=#AAB7B8;dashed=0;" vertex="1" parent="1">
          <mxGeometry x="60" y="150" width="490" height="930" as="geometry" />
        </mxCell>
        <mxCell id="3Bf_FbH5OQ8NM-TsNob--2" value="AWS Account (live)" style="points=[[0,0],[0.25,0],[0.5,0],[0.75,0],[1,0],[1,0.25],[1,0.5],[1,0.75],[1,1],[0.75,1],[0.5,1],[0.25,1],[0,1],[0,0.75],[0,0.5],[0,0.25]];outlineConnect=0;gradientColor=none;html=1;whiteSpace=wrap;fontSize=12;fontStyle=0;container=0;pointerEvents=0;collapsible=0;recursiveResize=0;shape=mxgraph.aws4.group;grIcon=mxgraph.aws4.group_account;strokeColor=#CD2264;fillColor=none;verticalAlign=top;align=left;spacingLeft=30;fontColor=#CD2264;dashed=0;" vertex="1" parent="1">
          <mxGeometry x="700" y="150" width="460" height="930" as="geometry" />
        </mxCell>
        <mxCell id="3Bf_FbH5OQ8NM-TsNob--3" value="" style="rounded=0;whiteSpace=wrap;html=1;strokeColor=#FFB570;" vertex="1" parent="1">
          <mxGeometry x="90" y="200" width="280" height="170" as="geometry" />
        </mxCell>
        <mxCell id="3Bf_FbH5OQ8NM-TsNob--4" style="edgeStyle=orthogonalEdgeStyle;rounded=0;orthogonalLoop=1;jettySize=auto;html=1;" edge="1" parent="1" source="3Bf_FbH5OQ8NM-TsNob--24">
          <mxGeometry relative="1" as="geometry">
            <mxPoint x="404" y="256" as="targetPoint" />
          </mxGeometry>
        </mxCell>
        <mxCell id="3Bf_FbH5OQ8NM-TsNob--5" value="" style="sketch=0;points=[[0,0,0],[0.25,0,0],[0.5,0,0],[0.75,0,0],[1,0,0],[0,1,0],[0.25,1,0],[0.5,1,0],[0.75,1,0],[1,1,0],[0,0.25,0],[0,0.5,0],[0,0.75,0],[1,0.25,0],[1,0.5,0],[1,0.75,0]];outlineConnect=0;fontColor=#232F3E;fillColor=#ED7100;strokeColor=#ffffff;dashed=0;verticalLabelPosition=bottom;verticalAlign=top;align=center;html=1;fontSize=12;fontStyle=0;aspect=fixed;shape=mxgraph.aws4.resourceIcon;resIcon=mxgraph.aws4.eks;" vertex="1" parent="1">
          <mxGeometry x="90" y="200" width="30" height="30" as="geometry" />
        </mxCell>
        <mxCell id="3Bf_FbH5OQ8NM-TsNob--6" value="4" style="ellipse;whiteSpace=wrap;html=1;aspect=fixed;strokeWidth=2;fontFamily=Tahoma;spacingBottom=4;spacingRight=2;strokeColor=#d3d3d3;fillColor=#CCFFCC;" vertex="1" parent="1">
          <mxGeometry x="220" y="265" width="20" height="20" as="geometry" />
        </mxCell>
        <mxCell id="3Bf_FbH5OQ8NM-TsNob--7" value="use secrets&lt;br&gt;to authenticate" style="text;html=1;strokeColor=none;fillColor=none;align=left;verticalAlign=middle;whiteSpace=wrap;rounded=0;" vertex="1" parent="1">
          <mxGeometry x="250" y="260" width="120" height="30" as="geometry" />
        </mxCell>
        <mxCell id="3Bf_FbH5OQ8NM-TsNob--8" value="role required to connect has been defined as a&amp;nbsp;&lt;div&gt;user id / password&lt;/div&gt;" style="text;html=1;strokeColor=none;fillColor=none;align=left;verticalAlign=middle;whiteSpace=wrap;rounded=0;" vertex="1" parent="1">
          <mxGeometry x="403" y="317" width="147" height="30" as="geometry" />
        </mxCell>
        <mxCell id="3Bf_FbH5OQ8NM-TsNob--9" value="2" style="ellipse;whiteSpace=wrap;html=1;aspect=fixed;strokeWidth=2;fontFamily=Tahoma;spacingBottom=4;spacingRight=2;strokeColor=#d3d3d3;fillColor=#E6E6E6;" vertex="1" parent="1">
          <mxGeometry x="379" y="315" width="20" height="20" as="geometry" />
        </mxCell>
        <mxCell id="3Bf_FbH5OQ8NM-TsNob--10" value="1" style="ellipse;whiteSpace=wrap;html=1;aspect=fixed;strokeWidth=2;fontFamily=Tahoma;spacingBottom=4;spacingRight=2;strokeColor=#d3d3d3;fillColor=#E6E6E6;" vertex="1" parent="1">
          <mxGeometry x="199" y="322" width="20" height="20" as="geometry" />
        </mxCell>
        <mxCell id="3Bf_FbH5OQ8NM-TsNob--11" value="execution role &lt;br&gt;has been defined&lt;br&gt;at setup time" style="text;html=1;strokeColor=none;fillColor=none;align=left;verticalAlign=middle;whiteSpace=wrap;rounded=0;" vertex="1" parent="1">
          <mxGeometry x="223" y="322" width="120" height="30" as="geometry" />
        </mxCell>
        <mxCell id="3Bf_FbH5OQ8NM-TsNob--12" value="Secrets Manager" style="sketch=0;points=[[0,0,0],[0.25,0,0],[0.5,0,0],[0.75,0,0],[1,0,0],[0,1,0],[0.25,1,0],[0.5,1,0],[0.75,1,0],[1,1,0],[0,0.25,0],[0,0.5,0],[0,0.75,0],[1,0.25,0],[1,0.5,0],[1,0.75,0]];outlineConnect=0;fontColor=#232F3E;fillColor=#DD344C;strokeColor=#ffffff;dashed=0;verticalLabelPosition=bottom;verticalAlign=top;align=center;html=1;fontSize=12;fontStyle=0;aspect=fixed;shape=mxgraph.aws4.resourceIcon;resIcon=mxgraph.aws4.secrets_manager;" vertex="1" parent="1">
          <mxGeometry x="753" y="420" width="78" height="78" as="geometry" />
        </mxCell>
        <mxCell id="3Bf_FbH5OQ8NM-TsNob--13" value="3" style="ellipse;whiteSpace=wrap;html=1;aspect=fixed;strokeWidth=2;fontFamily=Tahoma;spacingBottom=4;spacingRight=2;strokeColor=#d3d3d3;fillColor=#E6FFCC;" vertex="1" parent="1">
          <mxGeometry x="568" y="465" width="20" height="20" as="geometry" />
        </mxCell>
        <mxCell id="3Bf_FbH5OQ8NM-TsNob--14" value="pull secrets" style="text;html=1;strokeColor=none;fillColor=none;align=left;verticalAlign=middle;whiteSpace=wrap;rounded=0;" vertex="1" parent="1">
          <mxGeometry x="598" y="460" width="120" height="30" as="geometry" />
        </mxCell>
        <mxCell id="3Bf_FbH5OQ8NM-TsNob--15" value="scheduled lambda" style="sketch=0;points=[[0,0,0],[0.25,0,0],[0.5,0,0],[0.75,0,0],[1,0,0],[0,1,0],[0.25,1,0],[0.5,1,0],[0.75,1,0],[1,1,0],[0,0.25,0],[0,0.5,0],[0,0.75,0],[1,0.25,0],[1,0.5,0],[1,0.75,0]];outlineConnect=0;fontColor=#232F3E;fillColor=#ED7100;strokeColor=#ffffff;dashed=0;verticalLabelPosition=bottom;verticalAlign=top;align=center;html=1;fontSize=12;fontStyle=0;aspect=fixed;shape=mxgraph.aws4.resourceIcon;resIcon=mxgraph.aws4.lambda;" vertex="1" parent="1">
          <mxGeometry x="753" y="217" width="78" height="78" as="geometry" />
        </mxCell>
        <mxCell id="3Bf_FbH5OQ8NM-TsNob--16" value="user password&lt;br&gt;is rotated &lt;br&gt;periodically" style="text;html=1;strokeColor=none;fillColor=none;align=left;verticalAlign=middle;whiteSpace=wrap;rounded=0;" vertex="1" parent="1">
          <mxGeometry x="596.5" y="210" width="147" height="30" as="geometry" />
        </mxCell>
        <mxCell id="3Bf_FbH5OQ8NM-TsNob--17" value="1" style="ellipse;whiteSpace=wrap;html=1;aspect=fixed;strokeWidth=2;fontFamily=Tahoma;spacingBottom=4;spacingRight=2;strokeColor=#d3d3d3;fillColor=#FFE6CC;" vertex="1" parent="1">
          <mxGeometry x="570" y="215" width="20" height="20" as="geometry" />
        </mxCell>
        <mxCell id="3Bf_FbH5OQ8NM-TsNob--18" value="user is / password&lt;br&gt;defined as secrets" style="text;html=1;strokeColor=none;fillColor=none;align=left;verticalAlign=middle;whiteSpace=wrap;rounded=0;" vertex="1" parent="1">
          <mxGeometry x="874" y="444" width="147" height="30" as="geometry" />
        </mxCell>
        <mxCell id="3Bf_FbH5OQ8NM-TsNob--19" value="3" style="ellipse;whiteSpace=wrap;html=1;aspect=fixed;strokeWidth=2;fontFamily=Tahoma;spacingBottom=4;spacingRight=2;strokeColor=#d3d3d3;fillColor=#E6E6E6;" vertex="1" parent="1">
          <mxGeometry x="844" y="449" width="20" height="20" as="geometry" />
        </mxCell>
        <mxCell id="3Bf_FbH5OQ8NM-TsNob--20" style="edgeStyle=orthogonalEdgeStyle;rounded=0;orthogonalLoop=1;jettySize=auto;html=1;entryX=1;entryY=0.5;entryDx=0;entryDy=0;entryPerimeter=0;" edge="1" parent="1" source="3Bf_FbH5OQ8NM-TsNob--15">
          <mxGeometry relative="1" as="geometry">
            <mxPoint x="482" y="256" as="targetPoint" />
          </mxGeometry>
        </mxCell>
        <mxCell id="3Bf_FbH5OQ8NM-TsNob--21" style="edgeStyle=orthogonalEdgeStyle;rounded=0;orthogonalLoop=1;jettySize=auto;html=1;" edge="1" parent="1" source="3Bf_FbH5OQ8NM-TsNob--15" target="3Bf_FbH5OQ8NM-TsNob--12">
          <mxGeometry relative="1" as="geometry" />
        </mxCell>
        <mxCell id="3Bf_FbH5OQ8NM-TsNob--22" value="" style="edgeStyle=orthogonalEdgeStyle;rounded=0;orthogonalLoop=1;jettySize=auto;html=1;entryX=0;entryY=0.5;entryDx=0;entryDy=0;entryPerimeter=0;" edge="1" parent="1" source="3Bf_FbH5OQ8NM-TsNob--24">
          <mxGeometry relative="1" as="geometry">
            <Array as="points" />
            <mxPoint x="215" y="256" as="sourcePoint" />
            <mxPoint x="404" y="256" as="targetPoint" />
          </mxGeometry>
        </mxCell>
        <mxCell id="3Bf_FbH5OQ8NM-TsNob--23" value="2" style="ellipse;whiteSpace=wrap;html=1;aspect=fixed;strokeWidth=2;fontFamily=Tahoma;spacingBottom=4;spacingRight=2;strokeColor=#d3d3d3;fillColor=#FFE6CC;" vertex="1" parent="1">
          <mxGeometry x="760" y="347" width="20" height="20" as="geometry" />
        </mxCell>
        <mxCell id="3Bf_FbH5OQ8NM-TsNob--24" value="service" style="sketch=0;html=1;dashed=0;whitespace=wrap;fillColor=#2875E2;strokeColor=#ffffff;points=[[0.005,0.63,0],[0.1,0.2,0],[0.9,0.2,0],[0.5,0,0],[0.995,0.63,0],[0.72,0.99,0],[0.5,1,0],[0.28,0.99,0]];verticalLabelPosition=bottom;align=center;verticalAlign=top;shape=mxgraph.kubernetes.icon;prIcon=pod" vertex="1" parent="1">
          <mxGeometry x="165" y="232" width="50" height="48" as="geometry" />
        </mxCell>
        <mxCell id="3Bf_FbH5OQ8NM-TsNob--25" value="" style="strokeWidth=2;html=1;shape=mxgraph.flowchart.database;whiteSpace=wrap;" vertex="1" parent="1">
          <mxGeometry x="404" y="218.5" width="76" height="75" as="geometry" />
        </mxCell>
        <mxCell id="3Bf_FbH5OQ8NM-TsNob--26" value="" style="shape=flexArrow;endArrow=classic;startArrow=classic;html=1;rounded=0;" edge="1" parent="1">
          <mxGeometry x="-0.0667" y="65" width="100" height="100" relative="1" as="geometry">
            <mxPoint x="548" y="356.5" as="sourcePoint" />
            <mxPoint x="698" y="356.5" as="targetPoint" />
            <mxPoint as="offset" />
          </mxGeometry>
        </mxCell>
        <mxCell id="3Bf_FbH5OQ8NM-TsNob--27" value="AWS Direct Connect" style="sketch=0;outlineConnect=0;fontColor=#232F3E;gradientColor=none;strokeColor=#ffffff;fillColor=#232F3E;dashed=0;verticalLabelPosition=middle;verticalAlign=bottom;align=center;html=1;whiteSpace=wrap;fontSize=10;fontStyle=1;spacing=3;shape=mxgraph.aws4.productIcon;prIcon=mxgraph.aws4.direct_connect;" vertex="1" parent="1">
          <mxGeometry x="583" y="321" width="80" height="110" as="geometry" />
        </mxCell>
        <mxCell id="3Bf_FbH5OQ8NM-TsNob--28" value="Private Certificate Authority" style="sketch=0;points=[[0,0,0],[0.25,0,0],[0.5,0,0],[0.75,0,0],[1,0,0],[0,1,0],[0.25,1,0],[0.5,1,0],[0.75,1,0],[1,1,0],[0,0.25,0],[0,0.5,0],[0,0.75,0],[1,0.25,0],[1,0.5,0],[1,0.75,0]];outlineConnect=0;fontColor=#232F3E;fillColor=#DD344C;strokeColor=#ffffff;dashed=0;verticalLabelPosition=bottom;verticalAlign=top;align=center;html=1;fontSize=12;fontStyle=0;aspect=fixed;shape=mxgraph.aws4.resourceIcon;resIcon=mxgraph.aws4.private_certificate_authority;" vertex="1" parent="1">
          <mxGeometry x="908.5" y="585" width="80" height="80" as="geometry" />
        </mxCell>
        <mxCell id="3Bf_FbH5OQ8NM-TsNob--29" value="authenticate&lt;br&gt;with a certificate, &lt;br&gt;trust anchor, profile, role" style="edgeStyle=orthogonalEdgeStyle;rounded=0;orthogonalLoop=1;jettySize=auto;html=1;" edge="1" parent="1" source="3Bf_FbH5OQ8NM-TsNob--31" target="3Bf_FbH5OQ8NM-TsNob--38">
          <mxGeometry x="-0.0007" relative="1" as="geometry">
            <Array as="points">
              <mxPoint x="155" y="620" />
            </Array>
            <mxPoint as="offset" />
          </mxGeometry>
        </mxCell>
        <mxCell id="3Bf_FbH5OQ8NM-TsNob--30" style="edgeStyle=orthogonalEdgeStyle;rounded=0;orthogonalLoop=1;jettySize=auto;html=1;entryX=0;entryY=0.5;entryDx=0;entryDy=0;entryPerimeter=0;exitX=0.5;exitY=1;exitDx=0;exitDy=0;exitPerimeter=0;" edge="1" parent="1" source="3Bf_FbH5OQ8NM-TsNob--24" target="3Bf_FbH5OQ8NM-TsNob--12">
          <mxGeometry relative="1" as="geometry">
            <Array as="points">
              <mxPoint x="190" y="459" />
            </Array>
          </mxGeometry>
        </mxCell>
        <mxCell id="3Bf_FbH5OQ8NM-TsNob--31" value="" style="points=[[0.015,0.015,0],[0.25,0,0],[0.5,0,0],[0.75,0,0],[0.985,0.015,0],[1,0.22,0],[1,0.44,0],[1,0.67,0],[0.985,0.89,0],[0,0.22,0],[0,0.44,0],[0,0.67,0],[0.015,0.89,0],[0.25,0.91,0],[0.5,0.91,0],[0.785,0.955,0]];verticalLabelPosition=bottom;sketch=0;html=1;verticalAlign=top;aspect=fixed;align=center;pointerEvents=1;shape=mxgraph.cisco19.x509_certificate;fillColor=#005073;strokeColor=none;" vertex="1" parent="1">
          <mxGeometry x="130" y="401.5" width="50" height="47.5" as="geometry" />
        </mxCell>
        <mxCell id="3Bf_FbH5OQ8NM-TsNob--32" style="edgeStyle=orthogonalEdgeStyle;rounded=0;orthogonalLoop=1;jettySize=auto;html=1;entryX=0.5;entryY=0;entryDx=0;entryDy=0;entryPerimeter=0;" edge="1" parent="1" source="3Bf_FbH5OQ8NM-TsNob--3" target="3Bf_FbH5OQ8NM-TsNob--31">
          <mxGeometry relative="1" as="geometry">
            <Array as="points">
              <mxPoint x="155" y="380" />
              <mxPoint x="155" y="380" />
            </Array>
          </mxGeometry>
        </mxCell>
        <mxCell id="3Bf_FbH5OQ8NM-TsNob--33" value="leaf certificate to establish trust" style="text;html=1;strokeColor=none;fillColor=none;align=left;verticalAlign=middle;whiteSpace=wrap;rounded=0;" vertex="1" parent="1">
          <mxGeometry x="1030" y="773" width="125" height="30" as="geometry" />
        </mxCell>
        <mxCell id="3Bf_FbH5OQ8NM-TsNob--34" value="4" style="ellipse;whiteSpace=wrap;html=1;aspect=fixed;strokeWidth=2;fontFamily=Tahoma;spacingBottom=4;spacingRight=2;strokeColor=#d3d3d3;fillColor=#E6E6E6;" vertex="1" parent="1">
          <mxGeometry x="1001" y="629" width="20" height="20" as="geometry" />
        </mxCell>
        <mxCell id="3Bf_FbH5OQ8NM-TsNob--35" value="Certificate Manager" style="sketch=0;points=[[0,0,0],[0.25,0,0],[0.5,0,0],[0.75,0,0],[1,0,0],[0,1,0],[0.25,1,0],[0.5,1,0],[0.75,1,0],[1,1,0],[0,0.25,0],[0,0.5,0],[0,0.75,0],[1,0.25,0],[1,0.5,0],[1,0.75,0]];outlineConnect=0;fontColor=#232F3E;fillColor=#DD344C;strokeColor=#ffffff;dashed=0;verticalLabelPosition=bottom;verticalAlign=top;align=center;html=1;fontSize=12;fontStyle=0;aspect=fixed;shape=mxgraph.aws4.resourceIcon;resIcon=mxgraph.aws4.certificate_manager_3;" vertex="1" parent="1">
          <mxGeometry x="907.25" y="745" width="82.5" height="82.5" as="geometry" />
        </mxCell>
        <mxCell id="3Bf_FbH5OQ8NM-TsNob--36" value="root certificate&amp;nbsp;&lt;div&gt;to sign leaf certificates&lt;/div&gt;" style="text;html=1;strokeColor=none;fillColor=none;align=left;verticalAlign=middle;whiteSpace=wrap;rounded=0;" vertex="1" parent="1">
          <mxGeometry x="1030" y="624" width="125" height="30" as="geometry" />
        </mxCell>
        <mxCell id="3Bf_FbH5OQ8NM-TsNob--37" value="5" style="ellipse;whiteSpace=wrap;html=1;aspect=fixed;strokeWidth=2;fontFamily=Tahoma;spacingBottom=4;spacingRight=2;strokeColor=#d3d3d3;fillColor=#E6E6E6;" vertex="1" parent="1">
          <mxGeometry x="1001" y="778" width="20" height="20" as="geometry" />
        </mxCell>
        <mxCell id="3Bf_FbH5OQ8NM-TsNob--38" value="AWS Role Anywhere&amp;nbsp;&lt;br&gt;(trust anchor,&lt;br&gt;profile(s),&lt;br&gt;role(s))" style="sketch=0;outlineConnect=0;fontColor=#232F3E;gradientColor=none;fillColor=#DD344C;strokeColor=none;dashed=0;verticalLabelPosition=bottom;verticalAlign=top;align=center;html=1;fontSize=12;fontStyle=0;aspect=fixed;pointerEvents=1;shape=mxgraph.aws4.identity_access_management_iam_roles_anywhere;" vertex="1" parent="1">
          <mxGeometry x="753" y="585" width="78" height="78" as="geometry" />
        </mxCell>
        <mxCell id="3Bf_FbH5OQ8NM-TsNob--39" style="edgeStyle=orthogonalEdgeStyle;rounded=0;orthogonalLoop=1;jettySize=auto;html=1;entryX=0;entryY=0.5;entryDx=0;entryDy=0;entryPerimeter=0;" edge="1" parent="1" source="3Bf_FbH5OQ8NM-TsNob--38" target="3Bf_FbH5OQ8NM-TsNob--28">
          <mxGeometry relative="1" as="geometry" />
        </mxCell>
        <mxCell id="3Bf_FbH5OQ8NM-TsNob--40" value="sign" style="edgeStyle=orthogonalEdgeStyle;rounded=0;orthogonalLoop=1;jettySize=auto;html=1;entryX=0.5;entryY=0;entryDx=0;entryDy=0;entryPerimeter=0;" edge="1" parent="1" source="3Bf_FbH5OQ8NM-TsNob--28" target="3Bf_FbH5OQ8NM-TsNob--35">
          <mxGeometry relative="1" as="geometry" />
        </mxCell>
        <mxCell id="3Bf_FbH5OQ8NM-TsNob--41" value="on expiration&lt;br&gt;renew certificates" style="edgeStyle=orthogonalEdgeStyle;rounded=0;orthogonalLoop=1;jettySize=auto;html=1;" edge="1" parent="1" source="3Bf_FbH5OQ8NM-TsNob--43" target="3Bf_FbH5OQ8NM-TsNob--35">
          <mxGeometry relative="1" as="geometry" />
        </mxCell>
        <mxCell id="3Bf_FbH5OQ8NM-TsNob--42" value="publish&lt;br&gt;new&lt;br&gt;certificates" style="edgeStyle=orthogonalEdgeStyle;rounded=0;orthogonalLoop=1;jettySize=auto;html=1;" edge="1" parent="1" source="3Bf_FbH5OQ8NM-TsNob--43" target="3Bf_FbH5OQ8NM-TsNob--44">
          <mxGeometry relative="1" as="geometry" />
        </mxCell>
        <mxCell id="3Bf_FbH5OQ8NM-TsNob--43" value="event driven lambda" style="sketch=0;points=[[0,0,0],[0.25,0,0],[0.5,0,0],[0.75,0,0],[1,0,0],[0,1,0],[0.25,1,0],[0.5,1,0],[0.75,1,0],[1,1,0],[0,0.25,0],[0,0.5,0],[0,0.75,0],[1,0.25,0],[1,0.5,0],[1,0.75,0]];outlineConnect=0;fontColor=#232F3E;fillColor=#ED7100;strokeColor=#ffffff;dashed=0;verticalLabelPosition=bottom;verticalAlign=top;align=center;html=1;fontSize=12;fontStyle=0;aspect=fixed;shape=mxgraph.aws4.resourceIcon;resIcon=mxgraph.aws4.lambda;" vertex="1" parent="1">
          <mxGeometry x="908.5" y="940" width="78" height="78" as="geometry" />
        </mxCell>
        <mxCell id="3Bf_FbH5OQ8NM-TsNob--44" value="" style="sketch=0;outlineConnect=0;fontColor=#232F3E;gradientColor=none;fillColor=#7AA116;strokeColor=none;dashed=0;verticalLabelPosition=bottom;verticalAlign=top;align=center;html=1;fontSize=12;fontStyle=0;aspect=fixed;pointerEvents=1;shape=mxgraph.aws4.bucket_with_objects;" vertex="1" parent="1">
          <mxGeometry x="753" y="940" width="75" height="78" as="geometry" />
        </mxCell>
        <mxCell id="3Bf_FbH5OQ8NM-TsNob--45" value="1" style="ellipse;whiteSpace=wrap;html=1;aspect=fixed;strokeWidth=2;fontFamily=Tahoma;spacingBottom=4;spacingRight=2;strokeColor=#d3d3d3;fillColor=#CCFFCC;" vertex="1" parent="1">
          <mxGeometry x="359" y="570" width="20" height="20" as="geometry" />
        </mxCell>
        <mxCell id="3Bf_FbH5OQ8NM-TsNob--46" value="1" style="ellipse;whiteSpace=wrap;html=1;aspect=fixed;strokeWidth=2;fontFamily=Tahoma;spacingBottom=4;spacingRight=2;strokeColor=#d3d3d3;fillColor=#CCFFFF;" vertex="1" parent="1">
          <mxGeometry x="1001" y="870" width="20" height="20" as="geometry" />
        </mxCell>
        <mxCell id="3Bf_FbH5OQ8NM-TsNob--47" value="2" style="ellipse;whiteSpace=wrap;html=1;aspect=fixed;strokeWidth=2;fontFamily=Tahoma;spacingBottom=4;spacingRight=2;strokeColor=#d3d3d3;fillColor=#CCFFFF;" vertex="1" parent="1">
          <mxGeometry x="859" y="932" width="20" height="20" as="geometry" />
        </mxCell>
        <mxCell id="3Bf_FbH5OQ8NM-TsNob--48" value="trust anchor&lt;div&gt;and profile defined&lt;/div&gt;" style="text;html=1;strokeColor=none;fillColor=none;align=left;verticalAlign=middle;whiteSpace=wrap;rounded=0;" vertex="1" parent="1">
          <mxGeometry x="754" y="736" width="125" height="30" as="geometry" />
        </mxCell>
        <mxCell id="3Bf_FbH5OQ8NM-TsNob--49" value="6" style="ellipse;whiteSpace=wrap;html=1;aspect=fixed;strokeWidth=2;fontFamily=Tahoma;spacingBottom=4;spacingRight=2;strokeColor=#d3d3d3;fillColor=#E6E6E6;" vertex="1" parent="1">
          <mxGeometry x="725" y="741" width="20" height="20" as="geometry" />
        </mxCell>
        <mxCell id="3Bf_FbH5OQ8NM-TsNob--50" value="check for a new certificate" style="edgeStyle=orthogonalEdgeStyle;rounded=0;orthogonalLoop=1;jettySize=auto;html=1;" edge="1" parent="1" target="3Bf_FbH5OQ8NM-TsNob--44">
          <mxGeometry x="0.4041" relative="1" as="geometry">
            <Array as="points">
              <mxPoint x="110" y="979" />
            </Array>
            <mxPoint x="110" y="370" as="sourcePoint" />
            <mxPoint x="708" y="541" as="targetPoint" />
            <mxPoint as="offset" />
          </mxGeometry>
        </mxCell>
        <mxCell id="3Bf_FbH5OQ8NM-TsNob--51" value="2" style="ellipse;whiteSpace=wrap;html=1;aspect=fixed;strokeWidth=2;fontFamily=Tahoma;spacingBottom=4;spacingRight=2;strokeColor=#d3d3d3;fillColor=#CCFFCC;" vertex="1" parent="1">
          <mxGeometry x="350" y="941" width="20" height="20" as="geometry" />
        </mxCell>
        <mxCell id="3Bf_FbH5OQ8NM-TsNob--52" value="1" style="ellipse;whiteSpace=wrap;html=1;aspect=fixed;strokeWidth=2;fontFamily=Tahoma;spacingBottom=4;spacingRight=2;strokeColor=#d3d3d3;fillColor=#E6E6E6;" vertex="1" parent="1">
          <mxGeometry x="170" y="1110" width="20" height="20" as="geometry" />
        </mxCell>
        <mxCell id="3Bf_FbH5OQ8NM-TsNob--53" value="1" style="ellipse;whiteSpace=wrap;html=1;aspect=fixed;strokeWidth=2;fontFamily=Tahoma;spacingBottom=4;spacingRight=2;strokeColor=#d3d3d3;fillColor=#CCFFCC;" vertex="1" parent="1">
          <mxGeometry x="170" y="1150" width="20" height="20" as="geometry" />
        </mxCell>
        <mxCell id="3Bf_FbH5OQ8NM-TsNob--54" value="1" style="ellipse;whiteSpace=wrap;html=1;aspect=fixed;strokeWidth=2;fontFamily=Tahoma;spacingBottom=4;spacingRight=2;strokeColor=#d3d3d3;fillColor=#CCFFFF;" vertex="1" parent="1">
          <mxGeometry x="170" y="1228" width="20" height="20" as="geometry" />
        </mxCell>
        <mxCell id="3Bf_FbH5OQ8NM-TsNob--55" value="1" style="ellipse;whiteSpace=wrap;html=1;aspect=fixed;strokeWidth=2;fontFamily=Tahoma;spacingBottom=4;spacingRight=2;strokeColor=#d3d3d3;fillColor=#FFE6CC;" vertex="1" parent="1">
          <mxGeometry x="170" y="1189" width="20" height="20" as="geometry" />
        </mxCell>
        <mxCell id="3Bf_FbH5OQ8NM-TsNob--56" value="Setup flow" style="text;html=1;align=left;verticalAlign=middle;whiteSpace=wrap;rounded=0;" vertex="1" parent="1">
          <mxGeometry x="210" y="1105" width="60" height="30" as="geometry" />
        </mxCell>
        <mxCell id="3Bf_FbH5OQ8NM-TsNob--57" value="Authentication flow" style="text;html=1;align=left;verticalAlign=middle;whiteSpace=wrap;rounded=0;" vertex="1" parent="1">
          <mxGeometry x="210" y="1145" width="120" height="30" as="geometry" />
        </mxCell>
        <mxCell id="3Bf_FbH5OQ8NM-TsNob--58" value="Secret rotation flow" style="text;html=1;align=left;verticalAlign=middle;whiteSpace=wrap;rounded=0;" vertex="1" parent="1">
          <mxGeometry x="210" y="1184" width="120" height="30" as="geometry" />
        </mxCell>
        <mxCell id="3Bf_FbH5OQ8NM-TsNob--59" value="Certificate renewal flow" style="text;html=1;align=left;verticalAlign=middle;whiteSpace=wrap;rounded=0;" vertex="1" parent="1">
          <mxGeometry x="210" y="1221" width="150" height="30" as="geometry" />
        </mxCell>
      </root>
    </mxGraphModel>
  </diagram>
</mxfile>
